<svg xmlns="http://www.w3.org/2000/svg" width="900" height="480" viewBox="0 0 900 480"><rect width="100%" height="100%" fill="#091019"/><style>text{font-family:system-ui;fill:#dce8f2}.muted{fill:#91a5b8}.grid{stroke:#26384c;stroke-width:1}</style><text x="80" y="28" font-size="20" font-weight="600">Correlation analysis latency</text><line class="grid" x1="80" x2="870" y1="410.0" y2="410.0"/><text class="muted" x="70" y="414.0" text-anchor="end">0.0</text><line class="grid" x1="80" x2="870" y1="337.0" y2="337.0"/><text class="muted" x="70" y="341.0" text-anchor="end">7.0</text><line class="grid" x1="80" x2="870" y1="264.0" y2="264.0"/><text class="muted" x="70" y="268.0" text-anchor="end">14.1</text><line class="grid" x1="80" x2="870" y1="191.0" y2="191.0"/><text class="muted" x="70" y="195.0" text-anchor="end">21.1</text><line class="grid" x1="80" x2="870" y1="118.0" y2="118.0"/><text class="muted" x="70" y="122.0" text-anchor="end">28.2</text><line class="grid" x1="80" x2="870" y1="45.0" y2="45.0"/><text class="muted" x="70" y="49.0" text-anchor="end">35.2</text><rect x="141.8" y="406.8" width="34" height="3.2" rx="3" fill="#35d0ba"/><rect x="181.8" y="406.5" width="34" height="3.5" rx="3" fill="#ffbd59"/><text x="178.8" y="438" text-anchor="middle">100</text><rect x="339.2" y="381.8" width="34" height="28.2" rx="3" fill="#35d0ba"/><rect x="379.2" y="378.8" width="34" height="31.2" rx="3" fill="#ffbd59"/><text x="376.2" y="438" text-anchor="middle">1,000</text><rect x="536.8" y="265.1" width="34" height="144.9" rx="3" fill="#35d0ba"/><rect x="576.8" y="253.3" width="34" height="156.7" rx="3" fill="#ffbd59"/><text x="573.8" y="438" text-anchor="middle">5,000</text><rect x="734.2" y="130.1" width="34" height="279.9" rx="3" fill="#35d0ba"/><rect x="774.2" y="92.6" width="34" height="317.4" rx="3" fill="#ffbd59"/><text x="771.2" y="438" text-anchor="middle">10,000</text><text class="muted" x="475" y="465" text-anchor="middle">Configured baseline evidence items</text><text class="muted" transform="translate(20 240) rotate(-90)" text-anchor="middle">milliseconds</text><rect x="660" y="16" width="12" height="12" fill="#35d0ba"/><text x="678" y="27">median</text><rect x="755" y="16" width="12" height="12" fill="#ffbd59"/><text x="773" y="27">p95</text></svg>